<?xml version="1.0" encoding="UTF-8" standalone="no"?>
<svg
   xmlns:dc="http://purl.org/dc/elements/1.1/"
   xmlns:cc="http://creativecommons.org/ns#"
   xmlns:rdf="http://www.w3.org/1999/02/22-rdf-syntax-ns#"
   xmlns:svg="http://www.w3.org/2000/svg"
   xmlns="http://www.w3.org/2000/svg"
   xmlns:sodipodi="http://sodipodi.sourceforge.net/DTD/sodipodi-0.dtd"
   xmlns:inkscape="http://www.inkscape.org/namespaces/inkscape"
   width="2489"
   height="2500"
   viewBox="0 0 1219.547 1225.016"
   version="1.1"
   id="svg1080"
   sodipodi:docname="whatsapp-symbol.svg"
   inkscape:version="0.92.4 (f8dce91, 2019-08-02)">
  <metadata
     id="metadata1086">
    <rdf:RDF>
      <cc:Work
         rdf:about="">
        <dc:format>image/svg+xml</dc:format>
        <dc:type
           rdf:resource="http://purl.org/dc/dcmitype/StillImage" />
      </cc:Work>
    </rdf:RDF>
  </metadata>
  <defs
     id="defs1084" />
  <sodipodi:namedview
     pagecolor="#ffffff"
     bordercolor="#666666"
     borderopacity="1"
     objecttolerance="10"
     gridtolerance="10"
     guidetolerance="10"
     inkscape:pageopacity="0"
     inkscape:pageshadow="2"
     inkscape:window-width="1920"
     inkscape:window-height="998"
     id="namedview1082"
     showgrid="false"
     inkscape:zoom="0.1888"
     inkscape:cx="1052.2598"
     inkscape:cy="1298.5358"
     inkscape:window-x="0"
     inkscape:window-y="28"
     inkscape:window-maximized="1"
     inkscape:current-layer="svg1080"
     inkscape:snap-global="true" />
  <path
     fill="#E0E0E0"
     d="M1041.858 178.02C927.206 63.289 774.753.07 612.325 0 277.617 0 5.232 272.298 5.098 606.991c-.039 106.986 27.915 211.42 81.048 303.476L0 1225.016l321.898-84.406c88.689 48.368 188.547 73.855 290.166 73.896h.258.003c334.654 0 607.08-272.346 607.222-607.023.056-162.208-63.052-314.724-177.689-429.463zm-429.533 933.963h-.197c-90.578-.048-179.402-24.366-256.878-70.339l-18.438-10.93-191.021 50.083 51-186.176-12.013-19.087c-50.525-80.336-77.198-173.175-77.16-268.504.111-278.186 226.507-504.503 504.898-504.503 134.812.056 261.519 52.604 356.814 147.965 95.289 95.36 147.728 222.128 147.688 356.948-.118 278.195-226.522 504.543-504.693 504.543z"
     id="path1065" />
  <linearGradient
     id="a"
     gradientUnits="userSpaceOnUse"
     x1="609.77"
     y1="1190.114"
     x2="609.77"
     y2="21.084"
     gradientTransform="translate(-9.86,18.06296)">
    <stop
       offset="0"
       stop-color="#20b038"
       id="stop1067" />
    <stop
       offset="1"
       stop-color="#60d66a"
       id="stop1069" />
  </linearGradient>
  <path
     d="m 18.015,1208.177 82.211,-300.18004 c -50.719,-87.852 -77.391,-187.523 -77.359,-289.602 0.133,-319.398 260.078,-579.25 579.46898,-579.25 155.016,0.07 300.508,60.398 409.89802,169.891 109.414,109.492 169.633,255.031 169.57,409.812 -0.133,319.40604 -260.09402,579.28104 -579.44502,579.28104 -0.023,0 0.016,0 0,0 h -0.258 C 505.124,1198.098 409.835,1173.754 325.203,1127.629 Z"
     id="path1072"
     style="fill:url(#a)"
     inkscape:connector-curvature="0" />
  <path
     d="M462.273 349.294c-11.234-24.977-23.062-25.477-33.75-25.914-8.742-.375-18.75-.352-28.742-.352-10 0-26.25 3.758-39.992 18.766-13.75 15.008-52.5 51.289-52.5 125.078 0 73.797 53.75 145.102 61.242 155.117 7.5 10 103.758 166.266 256.203 226.383 126.695 49.961 152.477 40.023 179.977 37.523s88.734-36.273 101.234-71.297c12.5-35.016 12.5-65.031 8.75-71.305-3.75-6.25-13.75-10-28.75-17.5s-88.734-43.789-102.484-48.789-23.75-7.5-33.75 7.516c-10 15-38.727 48.773-47.477 58.773-8.75 10.023-17.5 11.273-32.5 3.773-15-7.523-63.305-23.344-120.609-74.438-44.586-39.75-74.688-88.844-83.438-103.859-8.75-15-.938-23.125 6.586-30.602 6.734-6.719 15-17.508 22.5-26.266 7.484-8.758 9.984-15.008 14.984-25.008 5-10.016 2.5-18.773-1.25-26.273s-32.898-81.67-46.234-111.326z"
     id="path1076"
     clip-rule="evenodd"
     fill-rule="evenodd"
     fill="#FFF" />
  <path
     d="M 1038.858,183.93108 C 925.52202,70.517104 774.81902,8.0251024 614.25702,7.9541024 c -330.867,0 -600.124994,269.1719776 -600.257994,600.0229776 -0.039,105.759 27.594,208.993 80.117,299.993 L 8.9600254,1218.907 327.16302,1135.469 c 87.672,47.812 186.383,73.008 286.836,73.047 h 0.255 0.003 c 330.812,0 600.10898,-269.21892 600.24998,-600.05492 0.055,-160.343 -62.328,-311.108 -175.649,-424.53 z M 614.25702,1107.173 h -0.195 c -89.539,-0.047 -177.344,-24.086 -253.93,-69.531 l -18.227,-10.805 -188.828,49.508 50.414,-184.03892 -11.875,-18.867 c -49.945,-79.414 -76.312,-171.188 -76.273,-265.422 0.109,-274.992 223.906,-498.711 499.102,-498.711 133.266,0.055 258.516,52 352.719,146.266 94.19498,94.266 146.03098,219.578 145.99198,352.852 -0.118,274.999 -223.92298,498.74892 -498.89898,498.74892 z"
     id="path1078"
     inkscape:connector-curvature="0"
     style="fill:#ffffff" />
</svg>
